<svg width="199" height="84" viewBox="0 0 199 84" fill="none" xmlns="http://www.w3.org/2000/svg">
<path d="M27.76 41.4L8.76 16.36H8.6V33.44C8.6 34.7733 8.64 35.8267 8.72 36.6C8.82667 37.3733 9.01333 37.9733 9.28 38.4C9.57333 38.8267 9.97333 39.1067 10.48 39.24C11.0133 39.3733 11.7067 39.4533 12.56 39.48V41H1.8V39.48C2.73333 39.4533 3.48 39.3733 4.04 39.24C4.62667 39.08 5.08 38.8 5.4 38.4C5.72 38 5.93333 37.44 6.04 36.72C6.14667 35.9733 6.2 34.9733 6.2 33.72V17.48C6.2 16.36 6.14667 15.44 6.04 14.72C5.96 13.9733 5.77333 13.3867 5.48 12.96C5.21333 12.5333 4.81333 12.24 4.28 12.08C3.74667 11.8933 3.05333 11.7733 2.2 11.72V10.2H10.12L27.6 33.52H27.76V17.76C27.76 16.4533 27.7067 15.4133 27.6 14.64C27.52 13.84 27.3333 13.2267 27.04 12.8C26.7733 12.3733 26.3733 12.0933 25.84 11.96C25.3333 11.8267 24.6533 11.7467 23.8 11.72V10.2H34.56V11.72C33.6267 11.7467 32.8667 11.84 32.28 12C31.72 12.1333 31.28 12.4 30.96 12.8C30.64 13.2 30.4267 13.7733 30.32 14.52C30.2133 15.2667 30.16 16.2533 30.16 17.48V41.4H27.76ZM47.8438 19.4C49.3638 19.4 50.8038 19.68 52.1638 20.24C53.5238 20.7733 54.7104 21.52 55.7238 22.48C56.7638 23.44 57.5771 24.5867 58.1638 25.92C58.7771 27.2267 59.0838 28.6667 59.0838 30.24C59.0838 31.8667 58.7771 33.36 58.1638 34.72C57.5771 36.08 56.7638 37.2533 55.7238 38.24C54.7104 39.2267 53.5238 40 52.1638 40.56C50.8038 41.12 49.3638 41.4 47.8438 41.4C46.3504 41.4 44.9238 41.1333 43.5638 40.6C42.2304 40.04 41.0571 39.2667 40.0438 38.28C39.0304 37.2933 38.2304 36.12 37.6438 34.76C37.0571 33.3733 36.7638 31.8667 36.7638 30.24C36.7638 28.6667 37.0571 27.2133 37.6438 25.88C38.2304 24.5467 39.0304 23.4 40.0438 22.44C41.0571 21.48 42.2304 20.7333 43.5638 20.2C44.9238 19.6667 46.3504 19.4 47.8438 19.4ZM47.8438 21.32C46.8571 21.32 45.9504 21.5333 45.1237 21.96C44.3238 22.3867 43.6304 23 43.0438 23.8C42.4838 24.5733 42.0438 25.52 41.7238 26.64C41.4304 27.7333 41.2838 28.9467 41.2838 30.28C41.2838 31.6667 41.4304 32.92 41.7238 34.04C42.0438 35.16 42.4838 36.12 43.0438 36.92C43.6304 37.6933 44.3238 38.2933 45.1237 38.72C45.9238 39.1467 46.8304 39.36 47.8438 39.36C48.8571 39.36 49.7771 39.1467 50.6038 38.72C51.4304 38.2933 52.1371 37.68 52.7238 36.88C53.3104 36.08 53.7638 35.12 54.0838 34C54.4038 32.88 54.5638 31.64 54.5638 30.28C54.5638 28.9467 54.4038 27.7333 54.0838 26.64C53.7638 25.5467 53.3104 24.6133 52.7238 23.84C52.1371 23.04 51.4304 22.4267 50.6038 22C49.7771 21.5467 48.8571 21.32 47.8438 21.32ZM68.5756 32.64C68.5756 33.6533 68.7223 34.5867 69.0156 35.44C69.309 36.2667 69.709 36.9867 70.2156 37.6C70.749 38.1867 71.3756 38.6533 72.0956 39C72.8423 39.3467 73.6423 39.52 74.4956 39.52C75.429 39.52 76.269 39.3067 77.0156 38.88C77.789 38.4533 78.4423 37.8533 78.9756 37.08C79.5356 36.28 79.9623 35.3333 80.2556 34.24C80.5756 33.12 80.7356 31.88 80.7356 30.52C80.7356 29.16 80.5756 27.92 80.2556 26.8C79.9356 25.6533 79.4956 24.68 78.9356 23.88C78.3756 23.0533 77.6956 22.4133 76.8956 21.96C76.1223 21.5067 75.269 21.28 74.3356 21.28C73.2423 21.28 72.269 21.5467 71.4156 22.08C70.5623 22.5867 69.909 23.3067 69.4556 24.24C68.869 25.4133 68.5756 27.0267 68.5756 29.08V32.64ZM68.4956 22.64H68.6556C69.509 21.52 70.4423 20.7067 71.4556 20.2C72.4956 19.6667 73.6956 19.4 75.0556 19.4C76.4956 19.4 77.829 19.68 79.0556 20.24C80.309 20.8 81.389 21.5733 82.2956 22.56C83.229 23.5467 83.949 24.72 84.4556 26.08C84.989 27.4133 85.2556 28.8533 85.2556 30.4C85.2556 31.9733 84.989 33.44 84.4556 34.8C83.9223 36.1333 83.189 37.2933 82.2556 38.28C81.349 39.2667 80.269 40.04 79.0156 40.6C77.7623 41.16 76.4023 41.44 74.9356 41.44C73.4156 41.44 71.989 41.16 70.6556 40.6C69.349 40.04 68.269 39.28 67.4156 38.32L65.5356 41H64.6556V16.84C64.6556 14.1467 64.4823 12.4267 64.1356 11.68C64.0556 11.4933 63.9623 11.3467 63.8556 11.24C63.749 11.1067 63.589 11 63.3756 10.92C63.1623 10.8133 62.869 10.72 62.4956 10.64C62.1223 10.56 61.6156 10.48 60.9756 10.4V9.4L68.4956 7.8V22.64ZM96.0675 34.64C96.0675 35.7333 96.0942 36.6 96.1475 37.24C96.2008 37.88 96.3342 38.3733 96.5475 38.72C96.7875 39.04 97.1208 39.2533 97.5475 39.36C97.9742 39.4667 98.5742 39.5467 99.3475 39.6V41H88.7075V39.6C89.4808 39.5733 90.0942 39.5067 90.5475 39.4C91.0008 39.2667 91.3475 39.04 91.5875 38.72C91.8275 38.4 91.9742 37.9467 92.0275 37.36C92.1075 36.7467 92.1475 35.9333 92.1475 34.92V30.24C92.1475 28.4267 92.1208 27.0133 92.0675 26C92.0408 24.9867 91.9075 24.24 91.6675 23.76C91.4542 23.28 91.1075 23 90.6275 22.92C90.1475 22.8133 89.4808 22.76 88.6275 22.76V21.36L95.6275 19.84L96.1875 24.8H96.3475C96.6942 24 97.1208 23.2667 97.6275 22.6C98.1608 21.9333 98.7342 21.3733 99.3475 20.92C99.9608 20.44 100.601 20.0667 101.268 19.8C101.934 19.5333 102.614 19.4 103.308 19.4C104.161 19.4 104.828 19.6133 105.308 20.04C105.814 20.44 106.068 20.9867 106.068 21.68C106.068 22.32 105.868 22.8267 105.468 23.2C105.068 23.5467 104.494 23.72 103.748 23.72C103.321 23.72 102.961 23.6667 102.668 23.56C102.374 23.4533 102.108 23.3467 101.868 23.24C101.654 23.1067 101.441 22.9867 101.228 22.88C101.041 22.7733 100.828 22.72 100.588 22.72C99.8675 22.72 99.1475 23.1867 98.4275 24.12C97.7075 25.0267 97.1475 26.1867 96.7475 27.6C96.5342 28.3733 96.3608 29.2533 96.2275 30.24C96.1208 31.2 96.0675 32.2133 96.0675 33.28V34.64ZM126.7 37.28C124.434 40.0267 121.62 41.4 118.26 41.4C116.687 41.4 115.26 41.1467 113.98 40.64C112.7 40.1067 111.594 39.3733 110.66 38.44C109.754 37.48 109.047 36.3467 108.54 35.04C108.034 33.7067 107.78 32.24 107.78 30.64C107.78 29.0133 108.047 27.5067 108.58 26.12C109.114 24.7333 109.86 23.5467 110.82 22.56C111.807 21.5733 112.967 20.8 114.3 20.24C115.66 19.68 117.14 19.4 118.74 19.4C121.327 19.4 123.327 20.1067 124.74 21.52C126.154 22.9067 126.86 24.9067 126.86 27.52C126.86 27.8933 126.78 28.12 126.62 28.2C126.487 28.28 126.154 28.32 125.62 28.32H112.46C112.407 28.5333 112.367 28.8 112.34 29.12C112.314 29.4133 112.3 29.7467 112.3 30.12C112.3 31.5067 112.46 32.7733 112.78 33.92C113.127 35.04 113.607 36 114.22 36.8C114.86 37.6 115.607 38.2267 116.46 38.68C117.34 39.1067 118.314 39.32 119.38 39.32C120.5 39.32 121.54 39.08 122.5 38.6C123.46 38.0933 124.447 37.28 125.46 36.16L126.7 37.28ZM120.1 26.48C120.634 26.48 121.06 26.4667 121.38 26.44C121.7 26.4133 121.94 26.36 122.1 26.28C122.26 26.2 122.367 26.0933 122.42 25.96C122.474 25.8 122.5 25.6 122.5 25.36C122.5 24.1333 122.1 23.16 121.3 22.44C120.527 21.6933 119.46 21.32 118.1 21.32C115.22 21.32 113.434 23.04 112.74 26.48H120.1Z" fill="#FFEBCD"/>
<path d="M1.52 83V81.48C2.56 81.4533 3.38667 81.3733 4 81.24C4.64 81.1067 5.12 80.88 5.44 80.56C5.78667 80.24 6.01333 79.7867 6.12 79.2C6.25333 78.6133 6.32 77.8533 6.32 76.92V58.28C6.32 57.3467 6.26667 56.6 6.16 56.04C6.08 55.4533 5.89333 55 5.6 54.68C5.33333 54.3333 4.93333 54.1067 4.4 54C3.86667 53.8667 3.17333 53.7733 2.32 53.72V52.2H14.28C17.88 52.2 20.68 52.84 22.68 54.12C24.68 55.4 25.68 57.2 25.68 59.52C25.68 61.28 25.12 62.72 24 63.84C22.9067 64.96 21.16 65.88 18.76 66.6V66.76C19.5867 66.84 20.3067 66.9333 20.92 67.04C21.5333 67.1467 22.08 67.28 22.56 67.44C23.04 67.5733 23.48 67.7467 23.88 67.96C24.3067 68.1733 24.72 68.4133 25.12 68.68C27.4933 70.36 28.68 72.4667 28.68 75C28.68 76.4133 28.28 77.7333 27.48 78.96C26.7067 80.16 25.6133 81.1067 24.2 81.8C23.7467 82.04 23.28 82.24 22.8 82.4C22.32 82.5333 21.76 82.6533 21.12 82.76C20.48 82.84 19.7333 82.9067 18.88 82.96C18.0533 82.9867 17.0667 83 15.92 83H1.52ZM16.04 81.28C20.8667 81.28 23.28 79.2133 23.28 75.08C23.28 72.0667 22.04 69.96 19.56 68.76C19.1333 68.5733 18.72 68.4133 18.32 68.28C17.92 68.1467 17.4533 68.0533 16.92 68C16.3867 67.92 15.7467 67.8667 15 67.84C14.28 67.8133 13.3867 67.8 12.32 67.8H10.52V76.72C10.52 78.3467 10.9467 79.52 11.8 80.24C12.6533 80.9333 14.0667 81.28 16.04 81.28ZM12.76 65.8C13.5867 65.8 14.28 65.7867 14.84 65.76C15.4 65.7333 15.88 65.6933 16.28 65.64C16.68 65.56 17.0267 65.4667 17.32 65.36C17.64 65.2267 17.96 65.0533 18.28 64.84C19.1333 64.3067 19.7333 63.6667 20.08 62.92C20.4533 62.1733 20.64 61.2 20.64 60C20.64 57.8933 20.12 56.3867 19.08 55.48C18.0667 54.5467 16.4667 54.08 14.28 54.08H11.2C10.7467 54.08 10.52 54.3067 10.52 54.76V65.8H12.76ZM44.6241 71.16C43.1041 71.7467 41.8107 72.32 40.7441 72.88C39.7041 73.44 38.8641 74 38.2241 74.56C37.5841 75.12 37.1174 75.68 36.8241 76.24C36.5574 76.8 36.4241 77.3733 36.4241 77.96C36.4241 78.84 36.7174 79.56 37.3041 80.12C37.8907 80.68 38.6641 80.96 39.6241 80.96C40.3174 80.96 40.9574 80.7867 41.5441 80.44C42.1574 80.0933 42.6907 79.6267 43.1441 79.04C43.5974 78.4267 43.9574 77.72 44.2241 76.92C44.4907 76.0933 44.6241 75.2267 44.6241 74.32V71.16ZM44.6241 69.44V67.8C44.6241 64.5467 43.2374 62.92 40.4641 62.92C40.0107 62.92 39.6241 62.96 39.3041 63.04C38.9841 63.12 38.7174 63.2533 38.5041 63.44C38.2907 63.6267 38.0907 63.8933 37.9041 64.24C37.7441 64.5867 37.5841 65.0133 37.4241 65.52C37.1307 66.2933 36.8374 66.8133 36.5441 67.08C36.2774 67.32 35.8774 67.44 35.3441 67.44C34.0107 67.44 33.3441 66.7733 33.3441 65.44C33.3441 64.16 34.0241 63.1733 35.3841 62.48C36.7441 61.76 38.6774 61.4 41.1841 61.4C43.8507 61.4 45.7441 61.88 46.8641 62.84C47.9841 63.7733 48.5441 65.3733 48.5441 67.64V76.6C48.5441 79.64 49.1441 81.16 50.3441 81.16C50.7174 81.16 51.0774 81.12 51.4241 81.04C51.7707 80.9333 52.0641 80.68 52.3041 80.28L52.8641 81.24C52.5441 81.8533 51.9574 82.3733 51.1041 82.8C50.2507 83.2 49.3574 83.4 48.4241 83.4C47.2507 83.4 46.3707 83.0267 45.7841 82.28C45.2241 81.5333 44.9441 80.48 44.9441 79.12H44.7441C44.0507 80.4267 43.0907 81.4667 41.8641 82.24C40.6374 82.9867 39.2774 83.36 37.7841 83.36C36.1041 83.36 34.7841 82.9333 33.8241 82.08C32.8641 81.2267 32.3841 80.08 32.3841 78.64C32.3841 78 32.4907 77.3867 32.7041 76.8C32.9441 76.2133 33.3174 75.6533 33.8241 75.12C34.3307 74.5867 34.9974 74.0667 35.8241 73.56C36.6507 73.0267 37.6641 72.4933 38.8641 71.96L44.6241 69.44ZM61.6925 76.64C61.6925 77.7333 61.7192 78.6 61.7725 79.24C61.8258 79.88 61.9592 80.3733 62.1725 80.72C62.4125 81.04 62.7458 81.2533 63.1725 81.36C63.5992 81.4667 64.1992 81.5467 64.9725 81.6V83H54.3325V81.6C55.1058 81.5733 55.7192 81.5067 56.1725 81.4C56.6258 81.2667 56.9725 81.04 57.2125 80.72C57.4525 80.4 57.5992 79.9467 57.6525 79.36C57.7325 78.7467 57.7725 77.9333 57.7725 76.92V72.24C57.7725 70.4267 57.7458 69.0133 57.6925 68C57.6658 66.9867 57.5325 66.24 57.2925 65.76C57.0792 65.28 56.7325 65 56.2525 64.92C55.7725 64.8133 55.1058 64.76 54.2525 64.76V63.36L61.2525 61.84L61.8125 66.8H61.9725C62.3192 66 62.7458 65.2667 63.2525 64.6C63.7858 63.9333 64.3592 63.3733 64.9725 62.92C65.5858 62.44 66.2258 62.0667 66.8925 61.8C67.5592 61.5333 68.2392 61.4 68.9325 61.4C69.7858 61.4 70.4525 61.6133 70.9325 62.04C71.4392 62.44 71.6925 62.9867 71.6925 63.68C71.6925 64.32 71.4925 64.8267 71.0925 65.2C70.6925 65.5467 70.1192 65.72 69.3725 65.72C68.9458 65.72 68.5858 65.6667 68.2925 65.56C67.9992 65.4533 67.7325 65.3467 67.4925 65.24C67.2792 65.1067 67.0658 64.9867 66.8525 64.88C66.6658 64.7733 66.4525 64.72 66.2125 64.72C65.4925 64.72 64.7725 65.1867 64.0525 66.12C63.3325 67.0267 62.7725 68.1867 62.3725 69.6C62.1592 70.3733 61.9858 71.2533 61.8525 72.24C61.7458 73.2 61.6925 74.2133 61.6925 75.28V76.64ZM79.435 74.64C79.435 75.6533 79.5817 76.5867 79.875 77.44C80.1683 78.2667 80.5683 78.9867 81.075 79.6C81.6083 80.1867 82.235 80.6533 82.955 81C83.7017 81.3467 84.5017 81.52 85.355 81.52C86.2883 81.52 87.1283 81.3067 87.875 80.88C88.6483 80.4533 89.3017 79.8533 89.835 79.08C90.395 78.28 90.8217 77.3333 91.115 76.24C91.435 75.12 91.595 73.88 91.595 72.52C91.595 71.16 91.435 69.92 91.115 68.8C90.795 67.6533 90.355 66.68 89.795 65.88C89.235 65.0533 88.555 64.4133 87.755 63.96C86.9817 63.5067 86.1283 63.28 85.195 63.28C84.1017 63.28 83.1283 63.5467 82.275 64.08C81.4217 64.5867 80.7683 65.3067 80.315 66.24C79.7283 67.4133 79.435 69.0267 79.435 71.08V74.64ZM79.355 64.64H79.515C80.3683 63.52 81.3017 62.7067 82.315 62.2C83.355 61.6667 84.555 61.4 85.915 61.4C87.355 61.4 88.6883 61.68 89.915 62.24C91.1683 62.8 92.2483 63.5733 93.155 64.56C94.0883 65.5467 94.8083 66.72 95.315 68.08C95.8483 69.4133 96.115 70.8533 96.115 72.4C96.115 73.9733 95.8483 75.44 95.315 76.8C94.7817 78.1333 94.0483 79.2933 93.115 80.28C92.2083 81.2667 91.1283 82.04 89.875 82.6C88.6217 83.16 87.2617 83.44 85.795 83.44C84.275 83.44 82.8483 83.16 81.515 82.6C80.2083 82.04 79.1283 81.28 78.275 80.32L76.395 83H75.515V58.84C75.515 56.1467 75.3417 54.4267 74.995 53.68C74.915 53.4933 74.8217 53.3467 74.715 53.24C74.6083 53.1067 74.4483 53 74.235 52.92C74.0217 52.8133 73.7283 52.72 73.355 52.64C72.9817 52.56 72.475 52.48 71.835 52.4V51.4L79.355 49.8V64.64ZM118.927 79.28C116.66 82.0267 113.847 83.4 110.487 83.4C108.914 83.4 107.487 83.1467 106.207 82.64C104.927 82.1067 103.82 81.3733 102.887 80.44C101.98 79.48 101.274 78.3467 100.767 77.04C100.26 75.7067 100.007 74.24 100.007 72.64C100.007 71.0133 100.274 69.5067 100.807 68.12C101.34 66.7333 102.087 65.5467 103.047 64.56C104.034 63.5733 105.194 62.8 106.527 62.24C107.887 61.68 109.367 61.4 110.967 61.4C113.554 61.4 115.554 62.1067 116.967 63.52C118.38 64.9067 119.087 66.9067 119.087 69.52C119.087 69.8933 119.007 70.12 118.847 70.2C118.714 70.28 118.38 70.32 117.847 70.32H104.687C104.634 70.5333 104.594 70.8 104.567 71.12C104.54 71.4133 104.527 71.7467 104.527 72.12C104.527 73.5067 104.687 74.7733 105.007 75.92C105.354 77.04 105.834 78 106.447 78.8C107.087 79.6 107.834 80.2267 108.687 80.68C109.567 81.1067 110.54 81.32 111.607 81.32C112.727 81.32 113.767 81.08 114.727 80.6C115.687 80.0933 116.674 79.28 117.687 78.16L118.927 79.28ZM112.327 68.48C112.86 68.48 113.287 68.4667 113.607 68.44C113.927 68.4133 114.167 68.36 114.327 68.28C114.487 68.2 114.594 68.0933 114.647 67.96C114.7 67.8 114.727 67.6 114.727 67.36C114.727 66.1333 114.327 65.16 113.527 64.44C112.754 63.6933 111.687 63.32 110.327 63.32C107.447 63.32 105.66 65.04 104.967 68.48H112.327ZM134.937 71.16C133.417 71.7467 132.123 72.32 131.057 72.88C130.017 73.44 129.177 74 128.537 74.56C127.897 75.12 127.43 75.68 127.137 76.24C126.87 76.8 126.737 77.3733 126.737 77.96C126.737 78.84 127.03 79.56 127.617 80.12C128.203 80.68 128.977 80.96 129.937 80.96C130.63 80.96 131.27 80.7867 131.857 80.44C132.47 80.0933 133.003 79.6267 133.457 79.04C133.91 78.4267 134.27 77.72 134.537 76.92C134.803 76.0933 134.937 75.2267 134.937 74.32V71.16ZM134.937 69.44V67.8C134.937 64.5467 133.55 62.92 130.777 62.92C130.323 62.92 129.937 62.96 129.617 63.04C129.297 63.12 129.03 63.2533 128.817 63.44C128.603 63.6267 128.403 63.8933 128.217 64.24C128.057 64.5867 127.897 65.0133 127.737 65.52C127.443 66.2933 127.15 66.8133 126.857 67.08C126.59 67.32 126.19 67.44 125.657 67.44C124.323 67.44 123.657 66.7733 123.657 65.44C123.657 64.16 124.337 63.1733 125.697 62.48C127.057 61.76 128.99 61.4 131.497 61.4C134.163 61.4 136.057 61.88 137.177 62.84C138.297 63.7733 138.857 65.3733 138.857 67.64V76.6C138.857 79.64 139.457 81.16 140.657 81.16C141.03 81.16 141.39 81.12 141.737 81.04C142.083 80.9333 142.377 80.68 142.617 80.28L143.177 81.24C142.857 81.8533 142.27 82.3733 141.417 82.8C140.563 83.2 139.67 83.4 138.737 83.4C137.563 83.4 136.683 83.0267 136.097 82.28C135.537 81.5333 135.257 80.48 135.257 79.12H135.057C134.363 80.4267 133.403 81.4667 132.177 82.24C130.95 82.9867 129.59 83.36 128.097 83.36C126.417 83.36 125.097 82.9333 124.137 82.08C123.177 81.2267 122.697 80.08 122.697 78.64C122.697 78 122.803 77.3867 123.017 76.8C123.257 76.2133 123.63 75.6533 124.137 75.12C124.643 74.5867 125.31 74.0667 126.137 73.56C126.963 73.0267 127.977 72.4933 129.177 71.96L134.937 69.44ZM152.005 76.64C152.005 77.7333 152.032 78.6 152.085 79.24C152.138 79.88 152.272 80.3733 152.485 80.72C152.725 81.04 153.058 81.2533 153.485 81.36C153.912 81.4667 154.512 81.5467 155.285 81.6V83H144.645V81.6C145.418 81.5733 146.032 81.5067 146.485 81.4C146.938 81.2667 147.285 81.04 147.525 80.72C147.765 80.4 147.912 79.9467 147.965 79.36C148.045 78.7467 148.085 77.9333 148.085 76.92V72.24C148.085 70.4267 148.058 69.0133 148.005 68C147.978 66.9867 147.845 66.24 147.605 65.76C147.392 65.28 147.045 65 146.565 64.92C146.085 64.8133 145.418 64.76 144.565 64.76V63.36L151.565 61.84L152.125 66.8H152.285C152.632 66 153.058 65.2667 153.565 64.6C154.098 63.9333 154.672 63.3733 155.285 62.92C155.898 62.44 156.538 62.0667 157.205 61.8C157.872 61.5333 158.552 61.4 159.245 61.4C160.098 61.4 160.765 61.6133 161.245 62.04C161.752 62.44 162.005 62.9867 162.005 63.68C162.005 64.32 161.805 64.8267 161.405 65.2C161.005 65.5467 160.432 65.72 159.685 65.72C159.258 65.72 158.898 65.6667 158.605 65.56C158.312 65.4533 158.045 65.3467 157.805 65.24C157.592 65.1067 157.378 64.9867 157.165 64.88C156.978 64.7733 156.765 64.72 156.525 64.72C155.805 64.72 155.085 65.1867 154.365 66.12C153.645 67.0267 153.085 68.1867 152.685 69.6C152.472 70.3733 152.298 71.2533 152.165 72.24C152.058 73.2 152.005 74.2133 152.005 75.28V76.64ZM171.308 76.64C171.308 77.68 171.348 78.52 171.428 79.16C171.534 79.7733 171.721 80.2667 171.988 80.64C172.254 80.9867 172.628 81.2267 173.108 81.36C173.588 81.4933 174.228 81.5733 175.028 81.6V83H163.548V81.6C164.348 81.5733 165.001 81.4933 165.508 81.36C166.014 81.2 166.401 80.96 166.668 80.64C166.961 80.2933 167.148 79.8267 167.228 79.24C167.334 78.6267 167.388 77.8533 167.388 76.92V71.8C167.388 70.2533 167.361 68.9867 167.308 68C167.281 66.9867 167.214 66.2933 167.108 65.92C166.974 65.3067 166.668 64.8933 166.188 64.68C165.708 64.44 164.801 64.32 163.468 64.32V62.92L171.308 61.4V76.64ZM166.708 53.28C166.708 52.5867 166.948 52 167.428 51.52C167.908 51.04 168.494 50.8 169.188 50.8C169.881 50.8 170.468 51.04 170.948 51.52C171.428 52 171.668 52.5867 171.668 53.28C171.668 53.9733 171.428 54.56 170.948 55.04C170.468 55.52 169.881 55.76 169.188 55.76C168.494 55.76 167.908 55.52 167.428 55.04C166.948 54.56 166.708 53.9733 166.708 53.28ZM189.78 71.16C188.26 71.7467 186.967 72.32 185.9 72.88C184.86 73.44 184.02 74 183.38 74.56C182.74 75.12 182.274 75.68 181.98 76.24C181.714 76.8 181.58 77.3733 181.58 77.96C181.58 78.84 181.874 79.56 182.46 80.12C183.047 80.68 183.82 80.96 184.78 80.96C185.474 80.96 186.114 80.7867 186.7 80.44C187.314 80.0933 187.847 79.6267 188.3 79.04C188.754 78.4267 189.114 77.72 189.38 76.92C189.647 76.0933 189.78 75.2267 189.78 74.32V71.16ZM189.78 69.44V67.8C189.78 64.5467 188.394 62.92 185.62 62.92C185.167 62.92 184.78 62.96 184.46 63.04C184.14 63.12 183.874 63.2533 183.66 63.44C183.447 63.6267 183.247 63.8933 183.06 64.24C182.9 64.5867 182.74 65.0133 182.58 65.52C182.287 66.2933 181.994 66.8133 181.7 67.08C181.434 67.32 181.034 67.44 180.5 67.44C179.167 67.44 178.5 66.7733 178.5 65.44C178.5 64.16 179.18 63.1733 180.54 62.48C181.9 61.76 183.834 61.4 186.34 61.4C189.007 61.4 190.9 61.88 192.02 62.84C193.14 63.7733 193.7 65.3733 193.7 67.64V76.6C193.7 79.64 194.3 81.16 195.5 81.16C195.874 81.16 196.234 81.12 196.58 81.04C196.927 80.9333 197.22 80.68 197.46 80.28L198.02 81.24C197.7 81.8533 197.114 82.3733 196.26 82.8C195.407 83.2 194.514 83.4 193.58 83.4C192.407 83.4 191.527 83.0267 190.94 82.28C190.38 81.5333 190.1 80.48 190.1 79.12H189.9C189.207 80.4267 188.247 81.4667 187.02 82.24C185.794 82.9867 184.434 83.36 182.94 83.36C181.26 83.36 179.94 82.9333 178.98 82.08C178.02 81.2267 177.54 80.08 177.54 78.64C177.54 78 177.647 77.3867 177.86 76.8C178.1 76.2133 178.474 75.6533 178.98 75.12C179.487 74.5867 180.154 74.0667 180.98 73.56C181.807 73.0267 182.82 72.4933 184.02 71.96L189.78 69.44Z" fill="#FFEBCD"/>
</svg>
